<svg id="svg" viewBox="0 0 400 514" xmlns="http://www.w3.org/2000/svg" xmlns:xlink="http://www.w3.org/1999/xlink" version="1.1" width="200" height="257" preserveAspectRatio="xMidYMid meet" buffered-rendering="static" style="background: rgb(255, 255, 255);"><g><path d="M 10 0 C 7.466666666666667 0 7 0.3888888888888884 7 2.5 C 7 4.611111111111112 7.466666666666667 5 10 5 C 12.533333333333333 5 13 4.611111111111112 13 2.5 C 13 0.3888888888888884 12.533333333333333 0 10 0 Z " class="odd" fill="#1d3861"></path><path d="M 93.5 0 L 14 0 L 14 3 L 14 6 L 10.5 6 L 7 6 L 7 109.5 C 7 195.47461622307455 7.224742432920676 212.788340775641 8.327265759390444 211.75 C 9.057261927055189 211.0625 10.278179391592555 209.375 11.040415680584594 208 C 11.916552931427486 206.4195337622904 12.439853799030317 202.26880813668555 12.46314992119415 196.7151353331875 C 12.491213624701171 190.0248962523529 12.857653589227905 187.7037990348829 14 186.98044810770458 C 14.825 186.45804570043586 17.3 186.03374093101644 19.5 186.0375486201059 C 21.94196892374248 186.0417751012094 24.47376942266095 186.80616516008925 26 188 C 27.449077262979493 189.13348464377088 30.076384105530764 189.9648755711048 32.25 189.97776415441118 L 36 190 L 37.563738499027785 186.25 C 38.42379467349307 184.1875 39.66129467349307 182.16939074853266 40.313738499027785 181.76531277451704 C 40.9661823245625 181.36123480050145 43.525 181.03318711688684 46 181.03631792204015 C 49.28539615310748 181.0404738554571 51.1287789583001 181.6436426778289 52.82957051765443 183.2710051475231 C 54.11083430236437 184.4969523163854 55.910834302364364 185.5 56.82957051765443 185.5 C 58.0206018670021 185.5 58.57739064074198 186.5044683018505 58.76966230999817 189 C 58.917976580497154 190.925 58.46797658049716 193.10340600173984 57.76966230999817 193.84090222608853 C 56.958209336149274 194.6978852919257 55.41732786141395 194.9608737302651 53.5 194.56962266406762 C 50.96708477514291 194.0527544735734 50.149686418642816 194.42783877091497 48.25 196.9787204379791 L 46 200 L 42.39862299155121 199.25 C 40.12222100261866 198.77593091817545 38.90743516314787 198.8679078909006 39.096748067104286 199.5 C 39.26147421330532 200.05 39.082093867107275 201.5125 38.69812507555308 202.75 C 38.07756945283923 204.75 37.833333333333336 204.83333333333334 36.5 203.5 C 35.675 202.675 34.6625 201.99527753643466 34.25 201.98950563652147 C 33.8375 201.98373373660826 33.05 203.44623373660826 32.5 205.23950563652147 C 31.613561222196644 208.1297342751181 31.045755111213424 208.5327756764143 27.5 208.78861679876562 C 24.784736807952953 208.9845344413393 22.857631596023523 209.829452557362 21.5 211.41925090465367 C 20.4 212.70736042357103 18.0375 214.4899828641265 16.25 215.38063410588808 C 14.462499999999999 216.27128534764964 12.55 217.9 12 219 C 11.333333333333334 220.33333333333334 10.333333333333332 220.83333333333334 9 220.5 L 7 220 L 7 234.5 L 7 249 L 10.5 249 L 14 249 L 14 256 L 14 263 L 10.5 263 L 7 263 L 7.073615603343061 331.25 L 7.14723120668612 399.5 L 9.04060352944952 392 C 10.081958306969387 387.875 11.866577984662865 379.1 13.006425035435024 372.5 C 14.146272086207183 365.9 16.209240514820525 356.225 17.59079932124245 351 C 18.97235812766438 345.775 21.03654746682299 338.575 22.177886741594925 335 C 23.31922601636686 331.425 26.718955610086233 323.325 29.732841394304643 317 C 32.74672717852305 310.675 35.54619863184719 304.6 35.95388906835828 303.5 C 36.361579504869376 302.4 38.67623691578875 299.8717295010352 41.09757220373468 297.8816211134115 C 43.51890749168061 295.8915127257878 49.775 291.33927855324487 55 287.76554517442713 C 60.225 284.1918117956094 71.25 277.54034323719657 79.5 272.9845039335096 C 87.75 268.42866462982266 98.4375 262.29339880236563 103.25 259.350579872494 C 108.0625 256.4077609426223 112.3375 253.98117588601536 112.75 253.9581686355897 C 113.1625 253.935161385164 114.9625 252.585161385164 116.75 250.9581686355897 C 118.5375 249.33117588601536 120.9 248 122 248 C 123.1 248 124.9 247.55 126 247 C 127.71428571428572 246.14285714285714 128 245 128 239 C 128 233.48371326513592 127.54025013167399 231.31113312690118 125.83094944696927 228.75 C 124.54232378803488 226.81918589993904 123.42608956500953 223.16203231292835 123.08094944696927 219.74008778191615 C 122.60630754415804 215.034177982915 122.77448397974891 213.97602490538978 124 213.95749304637002 C 124.825 213.9450176617658 126.25830028258028 214.73697815990352 127.18511173906728 215.71740526445387 C 128.11192319555428 216.69783236900426 129.35774493284265 219.525 129.95360448859697 222 C 130.54946404435128 224.475 131.32343683491294 232.125 131.6735440231784 239 C 132.02365121144385 245.875 132.0153294741555 252.7375 131.65505127364872 254.25 C 131.29477307314193 255.7625 129.41023780588688 258.4625 127.46719512419304 260.25 C 125.52415244249923 262.0375 123.25876490108044 263.725 122.43300058770687 264 C 121.2308159156901 264.4003573167917 121.4864601554062 265.1698900617205 123.71580546351382 267.86146137454125 C 125.24711245858123 269.71026513053897 127.73750000000001 271.84776513053896 129.25 272.61146137454125 C 130.79826105640186 273.39321420330765 134.51272688206888 273.93065123545534 137.75 273.8413057149278 C 140.9125 273.754023858138 145.1875 273.979023858138 147.25 274.3413057149278 C 150.30793746207073 274.8784379630276 151.09698165246743 274.6770374822997 151.52550337118527 273.25 L 152.0510067423705 271.5 L 151.52550337118527 269.75 C 151.1334194964645 268.44430565361796 151.57125012608023 268.0029377693538 153.25 268.0115710802402 C 154.4875 268.01793517437227 157.6885329953782 267.23043517437225 160.36340665639602 266.2615710802402 L 165.22681331279202 264.5 L 164.86340665639602 261.6060370719181 C 164.601021666611 259.5165529638023 164.99330992077782 258.543604816278 166.27459068822492 258.1060370719181 C 167.25061556674862 257.7727166823631 168.26633180799885 256.825 168.53173789100322 256 C 168.7971439740076 255.175 167.88607816430638 253.0375 166.5071472027783 251.25 C 165.12821624125024 249.4625 164 247.775 164 247.5 C 164 247.225 164.5625 247.01516782470435 165.25 247.0337062771208 C 165.9375 247.05224472953725 167.84107158798253 245.81474472953724 169.48015908440559 244.2837062771208 C 171.11924658082864 242.75266782470436 174.26924658082865 240.49889526521235 176.48015908440559 239.275322811583 C 178.69107158798252 238.0517503579537 181.175 236.79382361084765 182 236.4799300402363 C 182.825 236.1660364696249 184.5047736635981 234.46714120441254 185.73283036355133 232.70460722865326 C 186.96088706350457 230.94207325289398 187.97338706350456 228.9375 187.98283036355133 228.25 C 187.99327015220518 227.48995270043548 187.11808513921613 227.16895202865257 185.75 227.43104168142762 C 184.5125 227.6681146062128 181.475 228.3769652196034 179 229.00626526674 C 174.95634702893216 230.03441516787015 174.04365297106784 229.91464519845582 170 227.8252235853124 C 167.525 226.5463506133906 164.9375 224.7125 164.25 223.75 C 163.46768707482994 222.6547619047619 161.6904761904762 222 159.5 222 C 157.33333333333334 222 155.23809523809524 221.23809523809524 154 220 C 152.9 218.9 152.225 217.55 152.5 217 C 152.775 216.45 154.0125 216.01594593707821 155.25 216.0354354157294 C 156.4875 216.05492489438058 158.625 216.71397895730232 160 217.5 C 161.375 218.28602104269766 163.0625 218.94507510561942 163.75 218.9645645842706 C 164.4375 218.98405406292176 165.225 218.1 165.5 217 C 165.775 215.9 166.9 214.775 168 214.5 C 169.1 214.225 170 213.325 170 212.5 C 170 211.675 168.9875 210.781144607482 167.75 210.51365468329328 C 166.5125 210.2461647591046 164.2625 210.0211647591046 162.75 210.01365468329328 C 160.66184155626922 210.00328626794226 159.51866068634968 209.1576562011119 158 206.5 C 156.9 204.575 156.225 202.55 156.5 202 C 156.775 201.45 159.475 201 162.5 201 C 165.525 201 168 200.775 168 200.5 C 168 200.225 166.65 198.875 165 197.5 C 163.35 196.125 162 194.55 162 194 C 162 193.45 163.4625 193.06541530952444 165.25 193.14536735449875 L 168.5 193.2907347089975 L 171.25 193.14536735449875 C 172.90634884974352 193.05781133616628 173.8710191644121 192.50288584079252 173.6756760162658 191.75 C 173.49729782521197 191.0625 171.35979782521198 190.01202206523516 168.9256760162658 189.41560458941143 C 165.08203889112445 188.4738224880664 164.5 187.98380351690312 164.5 185.6896246913967 C 164.5 184.15359510868333 163.3547781630085 181.8870583977403 161.76363636363737 180.27402010198526 C 159.55628653009668 178.0362938257747 158.78297731666902 177.74488125091864 157.76363636363737 178.76666666666597 C 157.0686363636368 179.4633333333323 155.2625 180.0258333333323 153.75 180.01666666666597 C 151.97962962962933 180.00593714927024 151 179.46565656565673 151 178.5 C 151 177.675 151.69799720175513 175.5375 152.55110489278917 173.75 C 153.4042125838232 171.9625 155.42424126302316 169.6 157.0400575132335 168.5 C 158.65587376344385 167.4 160.44032825064977 165.15 161.00551192924667 163.5 C 161.57069560784356 161.85 162.00823517868005 158.475 161.9778220866611 156 C 161.93482741023175 152.50111787067496 161.15249621749166 150.4432644698431 158.4612627778588 146.75 C 155.64214255119018 142.88123246165097 153.86338388368313 141.5825740971127 148.87343659312063 139.75 C 145.50382671933696 138.5125 142.57882671933694 137.1625 142.37343659312063 136.75 C 142.1680464669043 136.3375 140.3125 135.9974180789733 138.25 135.9942623977185 C 135.17037594052087 135.9895504889105 133.6508571420069 136.79400161753557 129.75 140.4942623977185 C 127.13749999999999 142.9724180789733 125 145.45 125 146 C 125 146.55 124.08443656917294 148.2375 122.96541459816207 149.75 C 121.8463926271512 151.2625 120.94639262715121 153.9625 120.96541459816207 155.75 C 120.9854104965217 157.62902022862974 121.84367985930479 159.84367985930479 123 161 C 124.1 162.1 126.6875 163.44749037951888 128.75 163.99442306559754 C 130.8125 164.5413557516762 134.3 164.9844650031435 136.5 164.97911029108047 C 138.7 164.97375557901745 140.95 164.63876519949855 141.5 164.23468722548293 C 142.05 163.8306092514673 142.54378667361436 162.375 142.59730371914299 161 C 142.65082076467164 159.625 143.0160874910429 157.825 143.40900755552357 157 C 143.8839900156209 156.0026965660351 142.94094118237354 154.32704134591813 140.59503716971375 152 C 138.65443339303766 150.075 137.3891666666664 148.15 137.78333333333316 147.72222222222223 C 138.17749999999992 147.29444444444445 139.7375 146.95694444444445 141.25 146.97222222222223 C 142.7625 146.9875 145.143714314623 147.5625 146.5415873658289 148.25 C 147.9519521013056 148.94364364296442 148.84212227256253 150.05635635703558 148.5415873658289 150.75 C 148.243714314623 151.4375 148.90149246818729 152.5625 150.00331659597174 153.25 C 151.10514072375622 153.9375 152.00514072375623 154.8375 152.00331659597174 155.25 C 152.00149246818728 155.6625 151.55 155.775 151 155.5 C 150.45 155.225 149.9925 155.5625 149.98333333333335 156.25 C 149.97416666666666 156.9375 150.53666666666666 158.0625 151.23333333333335 158.75 L 152.5 160 L 151.23333333333335 161.25 C 150.53666666666666 161.9375 149.97416666666666 163.5125 149.98333333333335 164.75 C 149.9925 165.9875 150.48236176024224 167.1125 151.07191502276055 167.25 C 151.68270805328285 167.39245369678403 150.61929288019212 170.72638909647935 148.59992123661632 175 C 145.78443593759135 180.95843202557262 145.30718395913408 182.76607984310584 146.27800621385575 183.7945253510699 C 146.9501027962351 184.50651429415834 148.5125 185.06901429415834 149.75 185.0445253510699 C 150.9875 185.02003640798145 152.2166322448744 185.3375 152.4814049886098 185.75 C 152.7461777323452 186.1625 152.1836777323452 187.23506965363742 151.2314049886098 188.13348811919425 C 150.2791322448744 189.03190658475108 147.7 190.66394851161274 145.5 191.7602479566646 C 143.01116370180185 193.00047970781895 140.9333136118243 193.44478939419966 140 192.93632090190783 C 139.175 192.48686157673976 137.2625 191.8673196498781 135.75 191.5595610644375 C 134.20152474165965 191.244482350324 132.57825237104856 190.01693430227846 132.03472151724947 188.75 C 131.5038183517367 187.5125 130.1538183517367 185.4875 129.03472151724947 184.25 C 127.91562468276226 183.0125 126.55 182 126 182 C 125.45 182 124.775 182.9 124.5 184 C 124.15424526677542 185.3830189328983 123.46014156628601 185.81665413090687 122.25 185.40566776236943 C 120.77656573319096 184.90526234248708 120.73705634273512 184.98186112984936 122 185.8903549878524 C 123.01998278338726 186.62407583806274 123.09998565282272 186.97427471456743 122.25 186.98468722548296 C 121.3174282805579 186.99611143385158 121.12697131222316 188.90456968334746 121.5 194.5 C 121.87995975803965 200.19939637059477 121.69989939509912 201.92149455222747 120.75 201.67300362574056 C 120.0625 201.49315561989786 118.93136588253653 199.13065561989788 118.23636862785892 196.42300362574056 C 117.54137137318133 193.71535163158325 116.26073073555007 188.125 115.39050054423387 184 C 114.1466027423032 178.10376876811935 113.95473660549216 173.50629829951052 114.49324150372374 162.5 L 115.1782191746976 148.5 L 118.51324218486747 140.5 C 121.20216910591061 134.04984499274877 121.82983675850939 131.24075094339162 121.75314117107794 126 C 121.70012592458909 122.37737042826764 122.28705079469738 118.04374795239796 123.07900857355926 116.21031639985536 C 124.02323734334139 114.02436802540431 125.17102819593049 112.93581834713277 126.5 112.96589333425797 C 127.6 112.99078662825895 130.1875 113.45864424832403 132.25 114.0055769344026 C 134.3125 114.55250962048117 136 115.225 136 115.5 C 136 115.775 133.9404016479631 118.5875 131.42311477325137 121.75 C 127.62199698521377 126.52539335124266 126.90163554917574 128.09323882967837 127.17311477325137 131 L 127.5 134.5 L 131 134.62203294142375 C 132.9494152862415 134.6900023361199 136.27209681572398 133.76327826958635 138.5 132.53021931519154 C 141.52400322717722 130.85654952392483 142.78571285641883 129.36277842543876 143.6709582013985 126.40818637376779 C 144.31498521216767 124.2586838681955 144.65248521216768 121.0375 144.4209582013985 119.25 C 144.06817544568946 116.5263472662005 144.32390600996953 116 146 116 C 147.1 116 150.5875 116.90258141345173 153.75 118.00573647433718 C 156.9125 119.10889153522264 160.175 120.01097529719864 161 120.01036705650608 C 161.825 120.00975881581353 164.975 121.03138725729235 168 122.2806524820146 C 171.025 123.52991770673684 175.525 125.7594745265705 178 127.23522319275608 C 180.475 128.71097185894166 185.2 131.0246603335154 188.5 132.37675313625334 C 191.8 133.72884593899124 195.85 135.54443302347278 197.5 136.41139110176783 C 199.15 137.27834918006292 202.075 137.97748627978893 204 137.965029101159 C 206.75983472435607 137.94716948861333 207.76434474130141 138.47716181892645 208.75 140.47118984273408 C 209.4375 141.86203542923033 211.125 143.45 212.5 144 C 214.38732115469224 144.7549284618769 215.1159766079162 145.91901826796166 215.4732357286546 148.75 C 215.73351537941463 150.8125 216.16664496254904 154.525 216.43574591339774 157 C 216.70484686424643 159.475 217.16689078635187 163.6375 217.46251018474314 166.25 C 217.82467057898367 169.45054785004703 218.364957029096 170.75534966053374 219.11881214806056 170.25 C 219.79196827680494 169.7987472160242 219.99113308748773 168.20542873056186 219.61881214806056 166.25 C 219.14218087441813 163.74673363040336 219.48783092174588 162.4830305635669 221.12318078511836 160.75 C 222.77570971618053 158.9987642498693 223.02739680393745 158.05665400011617 222.2585788165561 156.5 C 221.67029087306176 155.30887180647304 221.62047214097103 153.59001921771784 222.13539803143772 152.25 C 222.61092911414698 151.0125 223.7875 149.9924999999997 224.75 149.98333333333267 C 225.7125 149.9741666666656 227.06999999999968 150.5366666666656 227.76666666666597 151.23333333333267 C 228.4633333333323 151.9299999999997 229.0258333333323 152.8375 229.01666666666597 153.25 C 229.00749999999968 153.6625 228.325 154 227.5 154 C 226.675 154 225.80469235253128 154.3375 225.56598300562507 154.75 C 225.32727365871884 155.1625 225.55227365871883 156.175 226.06598300562507 157 L 227.00000000000003 158.5 L 227.98468722548296 157 C 228.67310662533453 155.9513125863181 228.97398168287992 157.98221922474954 228.98468722548296 163.75 C 228.99310925146733 168.2875 228.28374323542934 175.4875 227.40831830095408 179.75 C 226.53289336647885 184.0125 225.07039336647884 188.75857224105667 224.15831830095408 190.29682720234814 C 223.24624323542935 191.8350821636396 221.6 193.3404747239339 220.5 193.64214400300216 C 219.4 193.94381328207038 217.6 193.91622414039946 216.5 193.580834799289 C 214.8315641626425 193.0721297118559 214.2770935147224 193.6780106992133 213.15542473890372 197.23551799863498 C 212.41590834530075 199.58098309938575 210.60035617411452 203.75 209.12086435848988 206.5 L 206.43087923917233 211.5 L 206.71543961958616 220.25 L 207 229 L 210.75 232.8628632973855 C 212.8125 234.98743811094755 215.625 237.47217474916516 217 238.3845002712024 C 218.65397025956685 239.48192520247036 221.36126542895292 239.9984588448543 225 239.91084626620102 C 228.025 239.838011041413 232.975 240.22301373980974 236 240.76640781819378 C 239.025 241.3098018965778 243.75 242.75433557926524 246.5 243.9764826686103 C 249.25 245.19862975795536 256.225 247.7283222108884 262 249.59802145290587 C 267.775 251.46772069492337 272.61898962669363 252.88554283066307 272.76442139265254 252.7487373101052 C 272.90985315861144 252.61193178954736 273.1722246313723 250.475 273.34746910989884 248 C 273.52271358842546 245.525 273.90582265378055 243.05 274.1988225884657 242.5 C 274.49182252315086 241.95 276.36695105039 240.7125 278.3657748712194 239.75 C 280.36459869204873 238.7875 283.125 238 284.5 238 C 285.875 238 288.4625 238.92372799974427 290.25 240.0527288883206 C 292.7298033877764 241.61899475030336 294.5071801852155 241.97447010979116 297.75 241.5527288883206 L 302 241 L 301.36166753653913 243.75 C 301.01058468163563 245.2625 300.3355846816356 247.2875 299.86166753653913 248.25 C 299.3877503914426 249.2125 298.9799635920185 250.5625 298.95547464893014 251.25 L 298.9109492978602 252.5 L 300.45547464893014 251.25 C 301.70556455049433 250.23828958950213 302.28594750740257 250.28594750740254 303.5 251.5 C 304.325 252.325 305.1125 252.99697144501584 305.25 252.99326987781302 C 305.3875 252.98956831061017 305.38902726882924 250.40206831061016 305.2533939307316 247.24326987781302 C 305.117760592634 244.08447144501585 305.230260592634 242.0625 305.5033939307316 242.75 C 305.7765272688292 243.4375 307.125 244.45 308.5 245 C 310.5833333333333 245.83333333333334 310.8333333333333 246.33333333333334 310 248 C 309.45 249.1 309 251.125 309 252.5 C 309 253.875 308.5239423323424 255.1125 307.942094071872 255.25 C 307.3602458114017 255.3875 307.13524581140166 256.2875 307.442094071872 257.25 C 307.74894233234244 258.2125 309.0125 259.2980275920382 310.25 259.6622835378626 C 311.4875 260.02653948368703 313.2725288218824 261.26403948368704 314.2167307152943 262.4122835378626 C 315.1609326087062 263.56052759203817 315.9580517904428 265.175 315.988106674709 266 C 316.0181615589752 266.825 315.3581327370928 268.9625 314.5213759594147 270.75 C 313.6846191817366 272.5375 312.55 273.775 312 273.5 C 311.45 273.225 311 273.9 311 275 C 311 276.1 314.1040077489432 282.9625 317.89779499765166 290.25 C 321.69158224636004 297.5375 326.6062709109347 307.775 328.8193253633731 313 C 331.0323798158115 318.225 333.7824982672873 325.875 334.93069969998595 330 C 336.0789011326846 334.125 337.66825907813023 341.325 338.46260624542066 346 C 339.2569534127111 350.675 340.6303209666937 362.15 341.51453414315984 371.5 C 342.4920192038253 381.8362917003221 343.8778528644394 390.6559056263664 345.04997884916213 394 C 346.1102602609972 397.025 346.97587575806295 400.625 346.9735688426414 402 C 346.97126192721987 403.375 346.53315594803126 405.175 346.00000000000006 406 C 345.2336241907208 407.1858820012984 345.0340231851274 406.976470002164 345.0468501976086 405 C 345.0584509030518 403.21248740919333 344.12785320748316 401.96652980584673 341.78153742309144 400.6281416791728 C 339.30970821966645 399.21815804481406 337.1428936702572 398.86478616985636 333 399.1960171140803 C 329.975 399.4378706797344 326.1626512711799 400.2802069241066 324.5281139359554 401.0678754349075 C 322.8935766007309 401.8555439457084 321.5435766007309 402.94803774232304 321.5281139359554 403.4956394273845 C 321.51265127117995 404.0432411124459 323.3 405.0604453642944 325.5 405.75609332038107 C 327.7 406.4517412764677 331.2075678709564 407.80370353414474 333.294595268792 408.76045389299657 C 335.580290394172 409.80827896405276 336.8726351947942 410.997055692547 336.544595268792 411.75 C 336.2450678709564 412.4375 336.5625 412.99474599467766 337.25 412.988324432617 C 338.21243727353277 412.9793348316258 338.30734800068007 414.6471986451357 337.6625653223267 420.238324432617 C 337.2019762496064 424.23224599467767 336.47087758140003 427.725 336.03790161520146 428 C 335.60492564900295 428.275 334.9692712539559 430.8625 334.6253362928748 433.75 C 334.2814013317937 436.6375 333.4865866416162 440.0125 332.8590814258138 441.25 C 332.23157621001144 442.4875 331.4440762100114 445.48218267023424 331.1090814258138 447.9048503782983 C 330.6377038276342 451.31383266484323 330.0478311378476 452.3663338873405 328.5 452.56019624836637 C 327.4 452.69796876883976 325.9375 452.17828609860555 325.25 451.4053458700681 C 324.5625 450.6324056415306 323.55 450.225 323 450.5 C 322.45 450.775 321.30496359201857 450.4375 320.45547464893014 449.75 C 319.6059857058417 449.0625 318.9309857058417 447.9375 318.95547464893014 447.25 C 318.9799635920186 446.5625 316.6375 442.5721280365118 313.75 438.382506747804 C 310.8625 434.19288545909615 308.16196217062407 430.25538545909615 307.748804823609 429.632506747804 C 307.335647476594 429.0096280365118 306.02504730877695 426.25 304.8363600062379 423.5 C 303.64767270369884 420.75 302.76471295089317 418.05 302.8742272222254 417.5 C 302.98374149355755 416.95 302.49434166137456 415.9478786307038 301.7866720395965 415.2730636237863 C 300.76776658311263 414.30146236875726 298.93919094256967 414.44491358694665 293 415.9623754465865 C 288.875 417.0163119560442 284.2625 418.35593332534035 282.75 418.9393118228002 L 280 420 L 279.55287461789044 416.75 C 279.30695565773016 414.9625 278.83839975023926 410.8 278.5116392679106 407.5 C 278.18487878558193 404.2 277.4505087380877 398.575 276.8797058290345 395 C 276.30890291998134 391.425 275.6203197695217 387.825 275.34952105023535 387 C 274.9472743822748 385.77453814426474 274.5973882457855 385.86605085901965 273.43784059453924 387.5 C 272.1916209632582 389.25608091122086 272.2308212157217 389.72339915343633 273.7592607233183 391.3317480157418 C 275.2589886236244 392.9098841802656 275.37783105096184 394.08673859300535 274.61761722131234 399.8317480157418 C 274.13230669303414 403.49928660708383 273.82138043825046 407.85 273.9266699884597 409.5 C 274.03195953866896 411.15 274.2040317890784 421.5 274.30905276714736 432.5 L 274.5 452.5 L 276.75 456.75 C 278.67505445259116 460.3862139660056 279.00298062450463 462.5525176153977 279.02063855064 471.75 C 279.03505603989447 479.25963632034035 278.54710825498466 483.8564313077645 277.4018576956677 487 C 276.5001770225809 489.475 275.4783896747929 496.33974598307907 275.13121914502767 502.2549910735091 L 274.5 513.0099821470181 L 310.75 513.004991073509 L 347 513 L 347 509.5 L 347 506 L 350.5 506 L 354 506 L 354 384.5 L 354 263 L 350.5 263 L 347 263 L 347 256 L 347 249 L 350.5 249 L 354 249 L 354 127.5 L 354 6 L 350.5 6 L 347 6 L 347 3 L 347 0 L 267.5 0 L 188 0 L 188 3 L 188 6 L 180.5 6 L 173 6 L 173 3 L 173 0 L 93.5 0 Z " class="odd" fill="#1d3861"></path><path d="M 180.5 0 L 175 0 L 175 2.5 L 175 5 L 180.5 5 L 186 5 L 186 2.5 L 186 0 L 180.5 0 Z " class="odd" fill="#1d3861"></path><path d="M 351 0 C 348.46666666666664 0 348 0.3888888888888884 348 2.5 C 348 4.611111111111112 348.46666666666664 5 351 5 C 353.53333333333336 5 354 4.611111111111112 354 2.5 C 354 0.3888888888888884 353.53333333333336 0 351 0 Z " class="odd" fill="#1d3861"></path><path d="M 53 70 C 53.55 70 54.26789256029398 71.0125 54.59531680065329 72.25 L 55.19063360130659 74.5 L 54.59531680065329 76.75 L 54 79 L 51.75 77.61512609466705 C 50.5125 76.85344544673393 49.24434759473499 75.16594544673393 48.931883543855534 73.86512609466705 C 48.48091450661818 71.98769651782385 48.73866847950546 71.55155079457745 50.181883543855534 71.75 C 51.18184759473499 71.8875 52 71.55 52 71 C 52 70.45 52.45 70 53 70 Z " class="even" fill="#ffffff"></path><path d="M 73.75 88.99668340402829 C 74.1625 88.99485927624384 75.01035493091811 89.78235927624385 75.63412206870692 90.74668340402829 C 76.2578892064957 91.71100753181273 77.04538920649571 94.1875 77.38412206870692 96.25 C 77.894965123484 99.36045640390455 77.65891008208243 100.17054495895879 76 101 C 74.9 101.55 72.9875 101.8875 71.75 101.75 C 70.25 101.58333333333333 69.41666666666667 100.75 69.25 99.25 C 69.1125 98.0125 69.9 95.2 71 93 C 72.1 90.8 73.3375 88.99850753181273 73.75 88.99668340402829 Z " class="even" fill="#ffffff"></path><path d="M 41.66753608723958 95.5 C 41.90707944969862 96.6 41.96737884198477 97.55659754683909 41.80153473676437 97.62577232630909 C 41.635690631543966 97.69494710577908 40.4875 98.03244710577908 39.25 98.37577232630909 C 37.639232145026256 98.82265493562747 37 98.57384523664916 37 97.5 C 37 96.66666666666667 37.888888888888886 96 39 96 C 40.1 96 41.05220060771385 95.4375 41.116001350475216 94.75 C 41.17980209323659 94.0625 41.42799272478055 94.4 41.66753608723958 95.5 Z " class="even" fill="#ffffff"></path><path d="M 192 139.21046450659816 C 190.625 139.24168318683945 187.475 139.55004532637548 185 139.89571370556706 C 182.3326787472223 140.26824243858968 179.58366062638885 141.43561283222223 178.25 142.7621008338668 L 176 145 L 177.75 145.63777753443964 C 178.7125 145.9885551783814 180.85 146.05552637967364 182.5 145.7866024262001 C 184.15 145.51767847272654 187.525 144.78580951461046 190 144.16022696371988 C 192.475 143.53464441282932 196.3 142.7234665832095 198.5 142.35760956456477 L 202.5 141.6924149852107 L 198.5 140.42305912750322 C 196.3 139.72491340576414 193.375 139.17924582635686 192 139.21046450659816 Z " class="odd" fill="#1d3861"></path><path d="M 185.75 147.99226797178994 C 183.9625 147.98801535627442 181.6 148.59438530680444 180.5 149.33975675074555 C 179.4 150.08512819468666 178.1625 151.66360760738118 177.75 152.8474887789556 C 177.16003783741408 154.54068901223272 177.4801135122422 155.1769619730923 179.25 155.8293131297184 C 180.77692016297152 156.39211088046684 181.09828897942862 156.8741641051525 180.25 157.3293131297184 C 179.5625 157.69819090837328 179 158.45 179 159 C 179 159.55 180.35 160.675 182 161.5 C 183.65 162.325 185.45 163 186 163 C 186.55 163 186.8875 162.39325796975024 186.75 161.65168437722275 C 186.6125 160.91011078469526 187.9625 159.11011078469525 189.75 157.65168437722275 C 191.5375 156.19325796975025 192.775 154.55 192.5 154 C 192.225 153.45 192.7875 152.97996359201855 193.75 152.95547464893014 C 194.7125 152.9309857058417 196.175 153.62602211382313 197 154.5 C 197.825 155.37397788617687 198.8375 156.0690142941583 199.25 156.04452535106986 C 199.6625 156.02003640798145 200 155.325 200 154.5 C 200 153.675 200.5625 152.98631609134466 201.25 152.96959131409926 C 201.9375 152.95286653685383 201.7125 152.50286653685384 200.75 151.96959131409926 C 199.7875 151.43631609134465 198.55 151.225 198 151.5 C 197.45 151.775 195.2 151.55 193 151 C 190.8 150.45 189 149.55 189 149 C 189 148.45 187.5375 147.99652058730547 185.75 147.99226797178994 Z " class="odd" fill="#1d3861"></path><path d="M 106.35584159668417 153.875 C 106.82655447486047 154.21875 106.93905447486048 155.0625 106.60584159668417 155.75 C 106.27262871850787 156.4375 105.325 157 104.5 157 C 103.675 157 103 156.325 103 155.5 C 103 154.675 103.5625 153.83125 104.25 153.625 C 104.9375 153.41875 105.88512871850789 153.53125 106.35584159668417 153.875 Z " class="even" fill="#ffffff"></path><path d="M 183.25 153.96740526445387 C 183.3875 153.94947815990352 184.4 154.86414579089927 185.5 156 C 187.04860857229343 157.59908505917178 187.1614564292201 158.05437695140958 186 158.01728196102906 C 185.175 157.9909328304943 183.825 157.5765767289923 183 157.09649062435793 C 182.175 156.61640451972355 181.8375 155.72329526825624 182.25 155.111803398875 C 182.6625 154.50031152949373 183.1125 153.98533236900425 183.25 153.96740526445387 Z " class="even" fill="#ffffff"></path><path d="M 104 174.5 C 104.55 174.775 105 176.125 105 177.5 C 105 178.875 105.225 180.675 105.5 181.5 C 105.90625836119413 182.71877508358241 106.28556551442486 182.76564590298534 107.52315192086768 181.75 C 108.3608854773449 181.0625 109.29384518556128 180.725 109.59639571690408 181 C 109.8989462482469 181.275 109.66352788385645 183.1875 109.07324379603642 185.25 C 108.48295970821638 187.3125 107.55 189.225 107 189.5 C 106.45 189.775 105.61026639868052 188.9875 105.13392533040115 187.75 C 104.65758426212179 186.5125 103.98258426212179 182.9125 103.63392533040115 179.75 C 103.22554627469457 176.0458104721467 103.35579312559074 174.17789656279535 104 174.5 Z " class="even" fill="#ffffff"></path><path d="M 223.25 173.95547464893014 C 222.8375 173.9309857058417 221.825 174.62602211382313 221 175.5 C 220.175 176.37397788617687 219.8375 177.0690142941583 220.25 177.04452535106986 C 220.6625 177.02003640798145 221.675 176.775 222.5 176.5 C 223.325 176.225 224 175.55 224 175 C 224 174.45 223.6625 173.97996359201855 223.25 173.95547464893014 Z " class="odd" fill="#1d3861"></path><path d="M 297.25 179.0398458022418 C 298.7625 179.01793061100884 301.9125 179.92443473354024 304.25 181.0542994078672 C 306.5875 182.18416408219417 309.9625 184.88416408219416 311.75 187.0542994078672 C 313.5375 189.22443473354025 315 191.45 315 192 C 315 192.55 313.5375 194.08167512955552 311.75 195.4037225101234 C 309.9625 196.72576989069128 306.025 198.5415512676538 303 199.4387922367068 C 299.975 200.3360332057598 296.51087971327877 202.06685807620428 295.3019549183973 203.2850697265834 L 293.1039098367946 205.5 L 294.8019549183973 207.87018077173224 L 296.5 210.24036154346447 L 294.7889547451589 211.37018077173224 C 293.8478798549963 211.99158134727952 293.05287985499626 213.4 293.02228807849224 214.5 C 292.9916963019882 215.6 293.36662984776376 216.95 293.85547373577134 217.5 C 294.3443176237789 218.05 295.02681762377887 220.4125 295.372140402438 222.75 C 295.8797429931895 226.18597679970276 295.6648139763482 227.18310200856547 294.25 227.95597218374004 C 293.13688928747837 228.5640309715079 291.2262214250432 228.56370004306376 289 227.9550628816233 C 287.075 227.42877806440208 284.9375 226.99859058171904 284.25 226.99909069788328 C 283.5625 226.99959081404748 283.00427540743584 227.5625 283.00950090541295 228.25 C 283.0149332698728 228.96471668011637 280.5526299984082 230.02995911540108 277.25950090541295 230.73756685412016 L 271.5 231.97513370824032 L 271.5 234.83387213867798 C 271.5 236.4061782754187 270.825 238.45680959904607 270 239.3908306356277 C 269.175 240.32485167220935 267.4875 241.0690142941583 266.25 241.04452535106986 C 264.4869781089834 241.0096368316737 263.6753479273444 240.02604378203316 262.5 236.5 C 261.43333333333334 233.3 261.2888888888889 231.42222222222222 262 230 C 262.55 228.9 263.3375 227.99903075231148 263.75 227.99784611624773 C 264.1625 227.99666148018395 264.5 223.62421053989883 264.5 218.28128847116963 L 264.5 208.56688470984383 L 267 207.3724425502949 C 268.67797157379556 206.57074655418845 270.32202842620444 206.48279067198433 272 207.1049460763279 C 273.375 207.614766203398 276.91960172846245 208.13721611548016 279.87689272991656 208.26594588095494 C 284.1744709815828 208.45301784653915 285.4792290381445 208.13249122530172 286.37689272991656 206.66915709121298 C 287.3317718040634 205.11255281286915 286.8625896973698 204.28871781304548 283.24458882516967 201.16915709121298 C 280.29975750997994 198.63002555758743 278.52887477190137 196.03709686854378 277.49458882516967 192.75 C 276.3148105833615 189.00050946841353 276.263291965372 187.85617752808722 277.25 187.31719112796702 C 277.9375 186.9416462483489 279.85 186.47075541948374 281.5 186.27076706382226 C 283.15 186.0707787081608 284.95 185.2614852353995 285.5 184.47233712435275 C 286.05 183.683189013306 288.3 182.14701045317994 290.5 181.05860699073935 C 292.7 179.97020352829873 295.7375 179.06176099347482 297.25 179.0398458022418 Z " class="even" fill="#ffffff"></path><path d="M 173 181 L 171 180 L 170.5 181 C 170.225 181.55 170.9 182.45 172 183 L 174 184 L 174.5 183 C 174.775 182.45 174.1 181.55 173 181 Z " class="odd" fill="#1d3861"></path><path d="M 107.75 194.95547464893014 C 108.1625 194.9309857058417 109.175 195.6181243302372 110 196.48244936980905 C 111.346355066284 197.8929807588317 111.269532599426 197.99997144438493 109.25 197.52697472087894 C 108.0125 197.23713862439553 107 196.55 107 196 C 107 195.45 107.3375 194.97996359201855 107.75 194.95547464893014 Z " class="even" fill="#ffffff"></path><path d="M 183.75 195.42065308236073 C 182.4200807679648 195.10097615421992 182.12002307656138 195.4800923062455 182.5 197 C 182.8020063477441 198.2080253909765 182.38674761959595 199.2969904783838 181.45133322857365 199.75 C 180.2718203207528 200.32122338852204 180.87448175573866 200.97673763060791 183.97960620848247 202.5 C 187.6088271766037 204.28036526879393 188.2271685183518 204.33527395159544 189.6102397458343 203 C 190.56235042242295 202.08079312169713 190.93859866871375 200.62881031745434 190.58196676592547 199.25 C 190.26188504466646 198.0125 188.9875 196.73929388706233 187.75 196.42065308236073 C 186.5125 196.10201227765913 184.7125 195.65201227765914 183.75 195.42065308236073 Z " class="odd" fill="#1d3861"></path><path d="M 142.5 202 C 142.775 202 143.225 202.675 143.5 203.5 C 143.775 204.325 143.55 204.775 143 204.5 C 142.45 204.225 142 203.55 142 203 C 142 202.45 142.225 202 142.5 202 Z " class="even" fill="#ffffff"></path><path d="M 57.75 216.81295731129353 C 59.16678861634494 217.56041889728232 60 218.9257904262834 60 220.5 C 60 221.875 59.55 223.225 59 223.5 C 58.45 223.775 57.78108541225631 223.8875 57.51352313834737 223.75 C 57.245960864438416 223.6125 56.683460864438416 221.72833079008208 56.26352313834737 219.56295731129353 L 55.5 215.62591462258703 L 57.75 216.81295731129353 Z " class="even" fill="#ffffff"></path><path d="M 98.25 218.62705556526544 C 98.6625 218.83217500436945 99 220.575 99 222.5 C 99 225.33333333333334 99.38095238095238 226 101 226 C 102.13127742184899 226 103.40479809561849 226.9773129004199 103.93193870125964 228.25 C 104.44450498695245 229.4875 104.53607545779407 231.85 104.13542863646323 233.5 L 103.40697987040717 236.5 L 101.6234021143716 232.5 L 99.83982435833603 228.5 L 96.9590108936425 231.5 L 94.07819742894898 234.5 L 91.53909871447449 232.75 C 90.0865147994302 231.74884875021348 88.73115883827536 229.6092808924607 88.37173957640445 227.75 L 87.74347915280892 224.5 L 88.37173957640445 223.25 C 88.71728280938201 222.5625 90.9125 221.15717500436946 93.25 220.12705556526544 C 95.5875 219.09693612616144 97.8375 218.42193612616146 98.25 218.62705556526544 Z " class="even" fill="#ffffff"></path><path d="M 54.25 225.60584159668417 C 55.24052978911385 226.08592491588416 55.243989391925666 226.4491832111248 54.266666666666666 227.35584159668417 C 53.58833333333333 227.9851287185079 52.80083333333333 228.1625 52.516666666666666 227.75 C 52.2325 227.3375 52.225 226.55 52.5 226 C 52.775 225.45 53.5625 225.2726287185079 54.25 225.60584159668417 Z " class="even" fill="#ffffff"></path><path d="M 86.77800063039466 250.22619047619048 C 87.48090097711172 250.92678571428573 87.81840097711172 252.2875 87.52800063039466 253.25 C 87.22339663086285 254.2595764446005 86.36535123822901 254.788450412743 85.5 254.5 C 84.675 254.225 83.9875 253.2125 83.97222222222223 252.25 C 83.95694444444445 251.2875 84.29444444444444 250.15178571428572 84.72222222222223 249.72619047619048 C 85.15 249.30059523809524 86.0751002836776 249.52559523809524 86.77800063039466 250.22619047619048 Z " class="even" fill="#ffffff"></path><path d="M 10 250 L 7 250 L 7 256 L 7 262 L 10 262 L 13 262 L 13 256 L 13 250 L 10 250 Z " class="odd" fill="#1d3861"></path><path d="M 123.25 249.9818756468345 C 122.0125 249.99184404107552 120.325 250.675 119.5 251.5 C 118.58124679715466 252.41875320284532 118.05277025508035 254.64686592527156 118.13618205383327 257.25 C 118.22317505109662 259.96489691895755 118.43375064007685 260.5969981876221 118.71916977903427 259 C 118.96491289828654 257.625 120.59113097406157 255.02934404107552 122.33298772520101 253.2318756468345 L 125.5 249.963751293669 L 123.25 249.9818756468345 Z " class="odd" fill="#1d3861"></path><path d="M 351 250 L 348 250 L 348 256 L 348 262 L 351 262 L 354 262 L 354 256 L 354 250 L 351 250 Z " class="odd" fill="#1d3861"></path><path d="M 174.01666666666665 270.73333333333335 C 173.20083333333332 270.055 172.8801647232386 269.95 173.3040697553451 270.5 C 173.73566167706468 271.05997343500786 173.06828805349332 272.068388995161 171.78740308867842 272.7917151835394 L 169.5 274.0834303670788 L 172 273.41748750984846 C 173.375 273.0512189383718 174.725 272.5749471057791 175 272.3591056596424 C 175.275 272.14326421350574 174.8325 271.41166666666663 174.01666666666665 270.73333333333335 Z " class="odd" fill="#1d3861"></path><path d="M 343 284 C 344.1 284 345.17450112009175 284.5625 345.3877802668706 285.25 C 345.60105941364947 285.9375 346.10607801909623 288.525 346.51004383453017 291 C 347.0618116971441 294.3805470854078 346.8409609844184 296.184110114473 345.62226356765956 298.25 C 344.7300186054468 299.7625 343.4375 301.01024089079004 342.75 301.02275753508894 C 342.0625 301.03527417938784 340.0375 299.46027417938785 338.25 297.52275753508894 C 335.72697128046605 294.7879826326323 335.33552520636897 293.8881582645437 336.5 293.5 C 337.325 293.225 337.99038081826325 292.4375 337.97862404058503 291.75 C 337.96686726290676 291.0625 338.64186726290677 289.0375 339.47862404058503 287.25 C 340.4505295662855 285.17379198647166 341.7223335301364 284 343 284 Z " class="even" fill="#ffffff"></path><path d="M 45 338 C 44.45 338 43.9665604538264 338.5625 43.92568989739202 339.25 C 43.88481934095763 339.9375 43.64680581178866 341.625 43.39677094368321 343 C 43.14673607557775 344.375 42.50517562175134 345.6125 41.97108104629119 345.75 C 41.43698647083104 345.8875 40.99251488037711 347.0125 40.983366400838015 348.25 C 40.97421792129892 349.4875 40.472825345063775 352.3 39.86916067587103 354.5 C 39.265496006678276 356.7 38.53337613210124 359.175 38.242227621255395 360 C 37.95107911040956 360.825 37.841908445662476 366.9 37.99962614403966 373.5 C 38.21057454021385 382.3275407837873 37.98415788502259 385.3017212989867 37.14319279781727 384.75 C 36.51443675901777 384.3375 35.35523016313585 382.5375 34.56717814030189 380.75 C 33.77912611746793 378.9625 31.592763778001093 373.675 29.70859516370891 369 C 27.82442654941673 364.325 25.99419638628088 358.3625 25.64141702340702 355.75 C 25.28863766053316 353.1375 24.58884421379912 350.2125 24.086320475109158 349.25 C 23.366732079988797 347.8717490299883 23.0264215009553 348.4559260771128 22.484316259180588 352 C 22.0308150573501 354.9648150572087 22.32234651161572 358.3763371523005 23.33886577150838 362 C 24.187446583359424 365.025 25.346634777453776 371.325 25.914839536162503 376 C 26.483044294871227 380.675 27.1259048120802 385.175 27.343418463293553 386 C 27.5609321145069 386.825 28.022645817580404 388.5125 28.369448914568004 389.75 C 28.716252011555603 390.9875 29.5625 391.9799635920185 30.25 391.95547464893014 C 31.135621828075486 391.9239285506819 31.062746193690586 392.366418853596 30 393.4734384603221 C 28.665733471304826 394.8632897876034 28.678408098311387 395.2272985360931 30.11471394619423 396.767963811392 C 31.002806616601056 397.7205837151264 32.01353006539587 400.3 32.36076605462715 402.5 C 32.70800204385842 404.7 33.55638076807102 406.81029458154484 34.24605210843292 407.1895435145441 C 34.93572344879481 407.5687924475434 35.3875 409.03129244754336 35.25 410.4395435145441 C 35.08202157753685 412.1599492793938 35.492129465221105 413 36.5 413 C 37.325 413 38 413.45 38 414 C 38 414.55 38.9 415 40 415 C 41.1 415 42.225 415.45 42.5 416 C 42.775 416.55 42.55 417.9 42 419 C 41.45 420.1 41.213101514421915 421.5625 41.47355892093759 422.25 C 41.734016327453276 422.9375 43.53779014224078 424.4 45.48194517602094 425.5 C 47.42610020980111 426.6 48.865795200111194 427.95 48.68126737671002 428.5 C 48.49673955330884 429.05 47.14296573852133 429.6125 45.672881121626666 429.75 C 44.202796504732 429.8875 43 430.45 43 431 C 43 431.55 44.0125 432.49729470540785 45.25 433.10509934535077 C 46.898899543101905 433.9149650367424 47.13944396414247 434.38248761432976 46.15039017793166 434.85509934535077 C 45.03914205189356 435.3861007001434 45.02711031209562 435.9415381618684 46.08226616942564 438 L 47.36375198298795 440.5 L 42.431875991493975 439.8366764519518 C 39.71934419617229 439.4718485005253 34.8 438.6539657341561 31.5 438.0191591933535 C 28.2 437.3843526525509 21.3375 435.54534824917255 16.25 433.93248274140166 L 7 431 L 7 468.5 L 7 506 L 10.5 506 L 14 506 L 14 509.5 L 14 513 L 45 513 L 76 513 L 76 503.5 C 76 496.6093410837747 76.54653872054935 492.4206619756101 77.98981952857915 488.25 C 79.08422026929767 485.0875 80.48665177534244 479.125 81.1063339864564 475 C 81.83483253049698 470.15064909033714 81.95519969304715 463.6123813341722 81.44691234608055 456.5 C 81.01454823275988 450.45 80.5766653098252 443.25 80.47383918400348 440.5 C 80.37101305818176 437.75 79.94438984554438 430.55 79.52578760036485 424.5 C 79.10718535518534 418.45 78.17092970905325 411.7 77.44521949784911 409.5 C 76.71950928664498 407.3 74.9809273821715 399.875 73.58170415457471 393 C 72.1824809269779 386.125 70.9166879899999 377.49471309372893 70.76883096129026 373.8215846527309 C 70.57409606048316 368.9838957795549 70.23754199470626 367.6057795810425 69.54776532785465 368.8215846527309 C 69.0240362581747 369.74471309372893 68.59668677437968 373.2 68.59809980831015 376.5 C 68.59951284224063 379.8 68.97815582142779 387 69.4395286509483 392.5 C 69.90090148046882 398 70.0332756506896 402.275 69.73369347366118 402 C 69.43411129663275 401.725 68.44308708355925 394.975 67.53141744460898 387 C 66.6197478056587 379.025 66.01472311923293 370.3970071658489 66.1869181414406 367.82668259077525 C 66.35911316364827 365.2563580157016 66.18332741926662 362.78135801570164 65.79628315392583 362.32668259077525 C 65.40923888858502 361.87200716584886 64.61249144402706 363.3 64.02573327713036 365.5 C 63.438975110233656 367.7 62.706288099059705 373.1 62.39753991896603 377.5 C 62.08879173887236 381.9 61.31053918343032 386.75535762006507 60.668089795761496 388.2896836001446 C 60.02564040809267 389.8240095802242 59.275 391.0630020484114 59 391.0430001961163 C 58.725 391.0229983438212 57.9375 390.1051407237561 57.25 389.0033165959717 C 56.20905072198021 387.3350358245943 56.2926710107723 386.6486198809724 57.75 384.8989541646925 C 59.23870786765086 383.11161504165403 59.5746548949569 379.9387820059859 60 363.6489541646925 C 60.379642682422315 349.1094335153608 60.19910670605579 344.1991067060558 59.25 343.25 C 58.25 342.25 57.910663517646796 342.35 57.553317588233995 343.75 C 57.30764226176269 344.7125 56.826948219415556 347.3 56.48510860524037 349.5 C 56.14326899106518 351.7 55.10677607635988 355.1823371280036 54.181791017006375 357.2385269511192 C 53.25680595765287 359.2947167742347 52.275 360.9848170468928 52 360.9943053348037 C 51.725 361.0037936227147 50.417258244779894 356.39645649471106 49.09390721062199 350.75577838368457 C 47.77055617646408 345.1151002726581 46.533056176464086 339.9375 46.34390721062199 339.25 C 46.15475824477989 338.5625 45.55 338 45 338 Z " class="odd" fill="#1d3861"></path><path d="M 70.64177506673853 402.5 C 70.90790924818157 403.05 70.92458354010594 404.4 70.6788290487927 405.5 C 70.3955366291836 406.76802020953835 70.21844131794056 406.4020303143075 70.19494871889628 404.5 C 70.17456902876648 402.85 70.3756408852955 401.95 70.64177506673853 402.5 Z " class="even" fill="#ffffff"></path><path d="M 104.8208711318865 403.04686593141275 C 104.59460036327187 402.02214999431294 104.03747427465491 402.316973535202 102.93117776840239 404.04686593141275 C 102.0683255410237 405.39608966913573 99.6288862366505 410.1 97.51020153646195 414.5 C 95.39151683627338 418.9 92.86583134267356 423.625 91.8975671062401 425 C 90.71702936144732 426.6764425845874 89.47624067667456 432.44134449247554 88.13101524977012 442.5 C 87.0276759651451 450.75 85.86131662271248 464.7 85.53910559991988 473.5 C 85.21689457712726 482.3 85.30128221691194 489.11767804917184 85.72663368833028 488.65039566482636 C 86.15198515974863 488.1831132804809 88.42450189300916 480.08311328048086 90.77667087335371 470.65039566482636 C 93.12883985369825 461.21767804917187 96.37448164949421 447.425 97.98920819734474 440 C 99.60393474519526 432.575 101.87382486153503 421.55 103.03340845587753 415.5 C 104.19299205022004 409.45 104.99735025442408 403.8460896691357 104.8208711318865 403.04686593141275 Z " class="odd" fill="#1d3861"></path><path d="M 344.5496031746032 408 C 344.8824404761905 408.275 344.93046679197994 409.175 344.656328320802 410 C 344.3091628886429 411.04476938351837 344.12550503410995 410.8930258446912 344.05116959064327 409.5 C 343.9924707602339 408.4 344.2167658730159 407.725 344.5496031746032 408 Z " class="even" fill="#ffffff"></path><path d="M 119 448.5 C 118.45 448.225 116.918873151191 451.0375 115.59749589153554 454.75 C 114.27611863188008 458.4625 112.68010098157912 463.075 112.05079000197784 465 C 111.42147902237656 466.925 110.67292683189658 473 110.38734068980011 478.5 C 110.10175454770364 484 109.38884110080907 490.75 108.80308858558999 493.5 C 108.21733607037089 496.25 107.42807224140213 498.95 107.04916896565942 499.5 C 106.67026568991672 500.05 105.84494977473834 502.3 105.21513359859637 504.5 C 104.58531742245438 506.7 103.82926029071213 509.5125 103.53500663916911 510.75 L 103 513 L 113 513 L 123 513 L 123.55641952856678 508.25 C 123.86245026927851 505.6375 124.81982689800012 499.9 125.68392314794814 495.5 C 126.54801939789616 491.1 127.18210358817345 484.8 127.09299912634208 481.5 C 126.95841277530293 476.5155699355447 126.51367716173984 475.1191612741707 124.46549550696074 473.25 C 123.10947297813233 472.0125 122.225 470.325 122.5 469.5 C 122.775 468.675 122.2125 467.58104239233217 121.25 467.06898309407154 C 119.7593862190696 466.27596216249657 119.5370551741528 464.8678655446902 119.75 457.56898309407154 C 119.89510002707567 452.59554437822834 119.58040010830271 448.79020005415134 119 448.5 Z " class="odd" fill="#1d3861"></path><path d="M 10 507 C 7.333333333333334 507 7 507.3333333333333 7 510 C 7 512.6666666666666 7.333333333333334 513 10 513 C 12.666666666666666 513 13 512.6666666666666 13 510 C 13 507.3333333333333 12.666666666666666 507 10 507 Z " class="odd" fill="#1d3861"></path><path d="M 351 507 C 348.3333333333333 507 348 507.3333333333333 348 510 C 348 512.6666666666666 348.3333333333333 513 351 513 C 353.6666666666667 513 354 512.6666666666666 354 510 C 354 507.3333333333333 353.6666666666667 507 351 507 Z " class="odd" fill="#1d3861"></path></g></svg>